<?xml version="1.0" encoding="UTF-8"?>
<svg width="752pt" height="752pt" version="1.1" viewBox="0 0 752 752" xmlns="http://www.w3.org/2000/svg">
 <g>
  <path d="m524.29 311.29h-230.26c-4.6602 0-8.4414 3.7852-8.4414 8.4453v13.344c-37.066 3.0234-66.297 34.137-66.297 71.969 0 39.824 32.402 72.227 72.227 72.227 3.1953 0 6.3867-0.22266 9.5742-0.65234 10 17.984 24.332 33.246 41.777 44.363 1.2812 0.82031 2.5898 1.6133 3.9102 2.3867l-52.75 0.003906c-4.6602 0-8.4414 3.7773-8.4414 8.4375s3.7773 8.4453 8.4414 8.4453h230.26c4.6523 0 8.4297-3.7852 8.4297-8.4453 0-4.6562-3.7773-8.4375-8.4297-8.4375h-52.848c36.633-21.469 61.281-61.254 61.281-106.7v-33.785c0-4.6602-3.7773-8.4453-8.4297-8.4453-4.6602 0-8.4492 3.7852-8.4492 8.4453v33.785c0 58.832-47.848 106.7-106.68 106.7-41.074 0-77.809-22.938-95.891-59.859-7.1562-14.652-10.797-30.406-10.797-46.836v-45.039l-0.003906-30.32v-13.148h213.37v20.324c0 4.6602 3.7891 8.4453 8.4492 8.4453 4.6523 0 8.4297-3.7852 8.4297-8.4453v-28.766c0.003906-4.6641-3.7773-8.4414-8.4297-8.4414zm-232.77 149.1c-30.516 0-55.355-24.828-55.355-55.344 0-28.52 21.688-52.07 49.43-55.035v66.672c0 1.0898 0.019531 2.1719 0.039062 3.25 0.011719 0.33594 0.03125 0.67578 0.039062 1.0117 0.019532 0.75 0.058594 1.5039 0.097657 2.2656 0.019531 0.375 0.039062 0.74609 0.058593 1.1211 0.039063 0.75781 0.10547 1.5195 0.15234 2.2734 0.03125 0.32031 0.050782 0.65234 0.089844 0.97656 0.089844 1.0625 0.19141 2.125 0.3125 3.1836 0.019531 0.10547 0.03125 0.21094 0.050781 0.31641 0.097657 0.95312 0.22266 1.9141 0.35547 2.8555 0.050781 0.34375 0.097656 0.69141 0.15234 1.0352 0.097656 0.71875 0.22266 1.4453 0.33594 2.1719 0.058594 0.37109 0.11328 0.73438 0.19141 1.1094 0.125 0.73828 0.26172 1.4883 0.40625 2.2305 0.070312 0.3125 0.125 0.61719 0.18359 0.92578 0.22266 1.0273 0.43359 2.0625 0.66406 3.0898 0.039062 0.18359 0.097656 0.35938 0.13281 0.53906 0.19141 0.85156 0.40625 1.707 0.625 2.5547 0.089844 0.34375 0.19141 0.69531 0.28125 1.0469 0.18359 0.69531 0.38672 1.3906 0.57812 2.0781 0.097657 0.36328 0.20312 0.72656 0.31641 1.0938 0.21094 0.73047 0.43359 1.4609 0.67578 2.1797 0.089843 0.30078 0.18359 0.58594 0.26953 0.88281 0.32422 0.99219 0.66406 1.9883 1.0117 2.9805 0.089843 0.23047 0.17188 0.46484 0.26172 0.69531 0.22266 0.60156 0.43359 1.2031 0.66406 1.8008-0.67969 0.023438-1.3555 0.039063-2.0195 0.039063z"/>
  <path d="m349.41 240.94c0.039062-0.34375 0.070312-0.69531 0.070312-1.0469 0-9.6875-4.5078-17.766-8.9258-24.383-2.5781-3.8711-7.8242-4.9219-11.707-2.3398-3.8828 2.5859-4.9219 7.8281-2.3438 11.707 3.0547 4.582 5.8867 9.5 6.0781 14.492-0.85938 5.2422-4.6914 10.418-8.3516 14.824-0.11328 0.13672-0.23047 0.28516-0.33594 0.43359-9.0078 12.387-7.832 28.523 3.043 42.133 1.668 2.0859 4.125 3.1719 6.6016 3.168 1.8516 0 3.6992-0.60156 5.2695-1.8516 3.6289-2.9102 4.2266-8.2227 1.3125-11.863-2.8594-3.582-8.8242-12.801-2.7266-21.453 5.3125-6.3828 10.812-14.191 12.016-23.82z"/>
  <path d="m424.47 240.94c0.039063-0.34375 0.058594-0.69531 0.058594-1.0469 0-9.6875-4.5-17.766-8.9141-24.383-2.5898-3.8711-7.832-4.9219-11.707-2.3398-3.8828 2.5859-4.9219 7.8281-2.3438 11.707 3.0547 4.582 5.8867 9.5 6.0664 14.492-0.84766 5.2422-4.6797 10.418-8.3516 14.824-0.11328 0.13672-0.23047 0.28516-0.34375 0.43359-8.9961 12.387-7.832 28.523 3.0547 42.133 1.668 2.0859 4.125 3.1719 6.6016 3.168 1.8516 0 3.7109-0.60156 5.2578-1.8516 3.6523-2.9102 4.2383-8.2227 1.332-11.863-2.8711-3.582-8.8242-12.801-2.7266-21.453 5.293-6.3828 10.812-14.191 12.016-23.82z"/>
  <path d="m499.54 240.94c0.039062-0.34375 0.058593-0.69531 0.058593-1.0469 0-9.6875-4.5195-17.766-8.9336-24.383-2.5781-3.8711-7.8242-4.9219-11.707-2.3398-3.8633 2.5859-4.9219 7.8281-2.332 11.707 3.0547 4.582 5.8867 9.5 6.0664 14.492-0.85937 5.2422-4.6797 10.418-8.3438 14.824-0.125 0.13672-0.23047 0.28516-0.34375 0.43359-8.9961 12.387-7.832 28.523 3.0547 42.133 1.668 2.0859 4.1133 3.1719 6.5898 3.168 1.8516 0 3.7188-0.60156 5.2695-1.8516 3.6523-2.9102 4.2266-8.2227 1.3203-11.863-2.8594-3.582-8.8242-12.801-2.7188-21.453 5.293-6.3828 10.816-14.191 12.02-23.82z"/>
 </g>
</svg>
